<svg xmlns="http://www.w3.org/2000/svg" xml:space="preserve" width="1000px" height="428.061px" x="0px" y="0px" viewBox="750 320.974 1000 428.061"><path d="M1742.721 464.34a2.155 2.155 0 0 0-.479-.692 2.197 2.197 0 0 0-1.561-.654l-91.105.032c-4.936-.026-9.048-.861-12.436-2.138-3.4-1.27-6.068-2.979-8.128-4.728-2.06-1.755-3.497-3.562-4.437-5.032-.933-1.471-1.36-2.61-1.38-3.025.053-.602.13-.983.382-1.308.247-.317.675-.57 1.419-.938.751-.357 1.833-.823 3.394-1.549a139.74 139.74 0 0 0 6.295-3.167 81.27 81.27 0 0 0 3.479-1.988 66.905 66.905 0 0 0 3.361-2.138 72.6 72.6 0 0 0 3.135-2.292 43.842 43.842 0 0 0 2.824-2.416c3.03-2.817 5.776-5.764 8.199-8.892 2.416-3.109 4.501-6.399 6.204-9.91a51.936 51.936 0 0 0 3.944-11.236c.894-3.996 1.367-8.245 1.367-12.817 0-2.901-.13-6.179-.603-9.67-.467-3.491-1.276-7.222-2.643-11.062a52.39 52.39 0 0 0-5.984-11.781c-2.701-3.957-6.16-7.928-10.603-11.787-4.579-3.951-9.494-6.969-14.287-9.269-4.793-2.299-9.469-3.893-13.575-4.987a81.453 81.453 0 0 0-10.162-2.014c-2.513-.323-4.002-.375-4.016-.375h-135.977c-.304 0-.588.064-.854.174a2.21 2.21 0 0 0-.699.473c-.2.195-.363.435-.485.7-.11.266-.169.557-.169.867v188.871a2.15 2.15 0 0 0 .642 1.541c.2.208.434.363.699.479.266.117.558.182.867.182h63.103a2.216 2.216 0 0 0 1.567-.661 2.08 2.08 0 0 0 .466-.699c.116-.259.182-.544.182-.842v-64.688c0-.259.013-.466.046-.647.025-.194.064-.343.129-.466a.847.847 0 0 1 .188-.285.629.629 0 0 1 .247-.143c.278-.007.569.077.849.214.278.136.55.33.789.511.24.194.447.383.59.545.148.143.246.246.259.271l53.342 53.399c3.16 3.193 6.891 5.642 10.718 7.5 3.828 1.859 7.754 3.142 11.276 4.022a71.247 71.247 0 0 0 8.918 1.645c2.254.26 3.627.312 3.634.324h115.03a2.227 2.227 0 0 0 1.568-.661c.2-.194.362-.434.473-.699a2.17 2.17 0 0 0 .174-.842v-54.391a2.302 2.302 0 0 0-.176-.861m-137.622-61.897a18.379 18.379 0 0 1-4.514 6.036 21.453 21.453 0 0 1-5.635 3.588c-1.892.842-3.704 1.334-5.201 1.542-.078.013-.161.025-.252.038a1.475 1.475 0 0 1-.253.026c-.085.013-.168.013-.266.025h-52.104c-.305 0-.597-.064-.862-.168a2.218 2.218 0 0 1-1.347-2.033v-36.696c0-.311.059-.596.175-.854a2.31 2.31 0 0 1 .466-.7c.201-.193.441-.362.706-.479.266-.11.558-.175.862-.175h48.056c2.649 0 5.35.407 7.908 1.249 2.564.843 4.98 2.112 7.072 3.828 2.092 1.729 3.854 3.893 5.084 6.535 1.236 2.643 1.956 5.751 1.956 9.352.001 3.484-.698 6.419-1.851 8.886"/><path fill="none" stroke="#000" stroke-miterlimit="10" stroke-width="3.4686" d="M1742.721 464.34a2.155 2.155 0 0 0-.479-.692 2.197 2.197 0 0 0-1.561-.654l-91.105.032c-4.936-.026-9.048-.861-12.436-2.138-3.4-1.27-6.068-2.979-8.128-4.728-2.06-1.755-3.497-3.562-4.437-5.032-.933-1.471-1.36-2.61-1.38-3.025.053-.602.13-.983.382-1.308.247-.317.675-.57 1.419-.938.751-.357 1.833-.823 3.394-1.549a139.74 139.74 0 0 0 6.295-3.167 81.27 81.27 0 0 0 3.479-1.988 66.905 66.905 0 0 0 3.361-2.138 72.6 72.6 0 0 0 3.135-2.292 43.842 43.842 0 0 0 2.824-2.416c3.03-2.817 5.776-5.764 8.199-8.892 2.416-3.109 4.501-6.399 6.204-9.91a51.936 51.936 0 0 0 3.944-11.236c.894-3.996 1.367-8.245 1.367-12.817 0-2.901-.13-6.179-.603-9.67-.467-3.491-1.276-7.222-2.643-11.062a52.39 52.39 0 0 0-5.984-11.781c-2.701-3.957-6.16-7.928-10.603-11.787-4.579-3.951-9.494-6.969-14.287-9.269-4.793-2.299-9.469-3.893-13.575-4.987a81.453 81.453 0 0 0-10.162-2.014c-2.513-.323-4.002-.375-4.016-.375h-135.977c-.304 0-.588.064-.854.174a2.21 2.21 0 0 0-.699.473c-.2.195-.363.435-.485.7-.11.266-.169.557-.169.867v188.871a2.15 2.15 0 0 0 .642 1.541c.2.208.434.363.699.479.266.117.558.182.867.182h63.103a2.216 2.216 0 0 0 1.567-.661 2.08 2.08 0 0 0 .466-.699c.116-.259.182-.544.182-.842v-64.688c0-.259.013-.466.046-.647.025-.194.064-.343.129-.466a.847.847 0 0 1 .188-.285.629.629 0 0 1 .247-.143c.278-.007.569.077.849.214.278.136.55.33.789.511.24.194.447.383.59.545.148.143.246.246.259.271l53.342 53.399c3.16 3.193 6.891 5.642 10.718 7.5 3.828 1.859 7.754 3.142 11.276 4.022a71.247 71.247 0 0 0 8.918 1.645c2.254.26 3.627.312 3.634.324h115.03a2.227 2.227 0 0 0 1.568-.661c.2-.194.362-.434.473-.699a2.17 2.17 0 0 0 .174-.842v-54.391a2.302 2.302 0 0 0-.176-.861zm-137.622-61.897a18.379 18.379 0 0 1-4.514 6.036 21.453 21.453 0 0 1-5.635 3.588c-1.892.842-3.704 1.334-5.201 1.542-.078.013-.161.025-.252.038a1.475 1.475 0 0 1-.253.026c-.085.013-.168.013-.266.025h-52.104c-.305 0-.597-.064-.862-.168a2.218 2.218 0 0 1-1.347-2.033v-36.696c0-.311.059-.596.175-.854a2.31 2.31 0 0 1 .466-.7c.201-.193.441-.362.706-.479.266-.11.558-.175.862-.175h48.056c2.649 0 5.35.407 7.908 1.249 2.564.843 4.98 2.112 7.072 3.828 2.092 1.729 3.854 3.893 5.084 6.535 1.236 2.643 1.956 5.751 1.956 9.352.001 3.484-.698 6.419-1.851 8.886z"/><path d="M1225.803 378.998v-48.277c0-.311-.065-.602-.168-.867a2.276 2.276 0 0 0-.473-.7 2.325 2.325 0 0 0-.712-.473 2.213 2.213 0 0 0-.855-.174H943.294c-2.584 0-5.518.349-8.607.971-3.083.622-6.328 1.529-9.533 2.643a79.552 79.552 0 0 0-9.314 3.912c-2.94 1.483-5.654 3.103-7.953 4.799-2.48 1.833-5.064 4.164-7.552 6.924a58.057 58.057 0 0 0-6.917 9.508 53.325 53.325 0 0 0-5.065 11.684c-1.237 4.21-1.962 8.717-1.962 13.458 0 5.064.783 9.884 1.949 14.262 1.166 4.385 2.727 8.329 4.294 11.639 1.555 3.309 3.115 5.99 4.288 7.843s1.956 2.883 1.962 2.889c1.736 2.137 4.165 4.909 6.826 7.862a637.362 637.362 0 0 0 8.265 8.944c2.707 2.869 5.201 5.485 7.04 7.416 1.852 1.93 3.044 3.167 3.147 3.277a9.8 9.8 0 0 1 1.865 3.069c.214.558.382 1.127.486 1.717a9.03 9.03 0 0 1 .168 1.768 9.846 9.846 0 0 1-.783 3.867 9.968 9.968 0 0 1-5.278 5.291 9.936 9.936 0 0 1-3.859.777l-156.883-.032c-.311 0-.602.071-.868.175a2.42 2.42 0 0 0-.706.479 2.34 2.34 0 0 0-.466.705c-.11.266-.175.551-.175.849v54.352c0 .311.064.603.175.861.11.267.272.499.466.706.201.201.44.35.706.467.266.116.557.168.868.168l190.477.039c2.805 0 5.92-.182 9.236-.674 3.316-.492 6.833-1.282 10.434-2.513s7.28-2.896 10.926-5.116c3.653-2.216 7.267-5 10.738-8.472.92-.92 2.37-2.48 4.022-4.65a57.564 57.564 0 0 0 5.24-8.303 57.864 57.864 0 0 0 4.546-11.839c1.192-4.521 1.943-9.611 1.943-15.233 0-5.557-.589-10.428-1.554-14.702a53.937 53.937 0 0 0-3.802-11.152 53.916 53.916 0 0 0-4.76-8.135c-1.593-2.26-3.141-4.106-4.404-5.622-.958-1.165-2.455-2.85-4.313-4.902a682.089 682.089 0 0 0-6.483-7.027c-2.396-2.577-4.98-5.323-7.571-8.069-2.59-2.746-5.194-5.479-7.616-8.019a10.473 10.473 0 0 1-1.244-1.489 9.153 9.153 0 0 1-.913-1.651 8.994 8.994 0 0 1-.563-1.774 9.066 9.066 0 0 1-.194-1.866 9.64 9.64 0 0 1 1.807-5.667 9.197 9.197 0 0 1 4.766-3.406c.175-.052.356-.097.538-.143.175-.026.356-.064.537-.091a7.07 7.07 0 0 1 .544-.052c.175-.02.356-.02.524-.02h96.398a7.47 7.47 0 0 1 2.875.577 7.354 7.354 0 0 1 2.338 1.586 7.536 7.536 0 0 1 1.581 2.352c.369.881.576 1.853.576 2.875l.026 130.957c0 .311.058.603.174.861.11.267.279.499.467.706.2.201.434.35.699.467.259.116.544.168.842.168l54.935.039c.304 0 .589-.064.854-.182.266-.11.499-.271.7-.479.207-.194.369-.434.479-.699.11-.259.182-.55.182-.842l-.033-130.996c0-1.022.201-1.994.583-2.875a7.432 7.432 0 0 1 1.58-2.352 7.59 7.59 0 0 1 2.358-1.586 7.474 7.474 0 0 1 2.875-.577h80.368c.304 0 .596-.059.855-.175.266-.11.505-.271.712-.466.201-.201.356-.44.473-.706.102-.268.167-.56.167-.864"/><path fill="none" stroke="#000" stroke-miterlimit="10" stroke-width="3.4686" d="M1225.803 378.998v-48.277c0-.311-.065-.602-.168-.867a2.276 2.276 0 0 0-.473-.7 2.325 2.325 0 0 0-.712-.473 2.213 2.213 0 0 0-.855-.174H943.294c-2.584 0-5.518.349-8.607.971-3.083.622-6.328 1.529-9.533 2.643a79.552 79.552 0 0 0-9.314 3.912c-2.94 1.483-5.654 3.103-7.953 4.799-2.48 1.833-5.064 4.164-7.552 6.924a58.057 58.057 0 0 0-6.917 9.508 53.325 53.325 0 0 0-5.065 11.684c-1.237 4.21-1.962 8.717-1.962 13.458 0 5.064.783 9.884 1.949 14.262 1.166 4.385 2.727 8.329 4.294 11.639 1.555 3.309 3.115 5.99 4.288 7.843s1.956 2.883 1.962 2.889c1.736 2.137 4.165 4.909 6.826 7.862a637.362 637.362 0 0 0 8.265 8.944c2.707 2.869 5.201 5.485 7.04 7.416 1.852 1.93 3.044 3.167 3.147 3.277a9.8 9.8 0 0 1 1.865 3.069c.214.558.382 1.127.486 1.717a9.03 9.03 0 0 1 .168 1.768 9.846 9.846 0 0 1-.783 3.867 9.968 9.968 0 0 1-5.278 5.291 9.936 9.936 0 0 1-3.859.777l-156.883-.032c-.311 0-.602.071-.868.175a2.42 2.42 0 0 0-.706.479 2.34 2.34 0 0 0-.466.705c-.11.266-.175.551-.175.849v54.352c0 .311.064.603.175.861.11.267.272.499.466.706.201.201.44.35.706.467.266.116.557.168.868.168l190.477.039c2.805 0 5.92-.182 9.236-.674 3.316-.492 6.833-1.282 10.434-2.513s7.28-2.896 10.926-5.116c3.653-2.216 7.267-5 10.738-8.472.92-.92 2.37-2.48 4.022-4.65a57.564 57.564 0 0 0 5.24-8.303 57.864 57.864 0 0 0 4.546-11.839c1.192-4.521 1.943-9.611 1.943-15.233 0-5.557-.589-10.428-1.554-14.702a53.937 53.937 0 0 0-3.802-11.152 53.916 53.916 0 0 0-4.76-8.135c-1.593-2.26-3.141-4.106-4.404-5.622-.958-1.165-2.455-2.85-4.313-4.902a682.089 682.089 0 0 0-6.483-7.027c-2.396-2.577-4.98-5.323-7.571-8.069-2.59-2.746-5.194-5.479-7.616-8.019a10.473 10.473 0 0 1-1.244-1.489 9.153 9.153 0 0 1-.913-1.651 8.994 8.994 0 0 1-.563-1.774 9.066 9.066 0 0 1-.194-1.866 9.64 9.64 0 0 1 1.807-5.667 9.197 9.197 0 0 1 4.766-3.406c.175-.052.356-.097.538-.143.175-.026.356-.064.537-.091a7.07 7.07 0 0 1 .544-.052c.175-.02.356-.02.524-.02h96.398a7.47 7.47 0 0 1 2.875.577 7.354 7.354 0 0 1 2.338 1.586 7.536 7.536 0 0 1 1.581 2.352c.369.881.576 1.853.576 2.875l.026 130.957c0 .311.058.603.174.861.11.267.279.499.467.706.2.201.434.35.699.467.259.116.544.168.842.168l54.935.039c.304 0 .589-.064.854-.182.266-.11.499-.271.7-.479.207-.194.369-.434.479-.699.11-.259.182-.55.182-.842l-.033-130.996c0-1.022.201-1.994.583-2.875a7.432 7.432 0 0 1 1.58-2.352 7.59 7.59 0 0 1 2.358-1.586 7.474 7.474 0 0 1 2.875-.577h80.368c.304 0 .596-.059.855-.175.266-.11.505-.271.712-.466.201-.201.356-.44.473-.706.102-.268.167-.56.167-.864"/><path d="M1377.104 330.313a2.355 2.355 0 0 0-.324-.693 2.463 2.463 0 0 0-.524-.57 2.497 2.497 0 0 0-.681-.375 2.755 2.755 0 0 0-.803-.168h-100.996a2.599 2.599 0 0 0-.803.168c-.253.091-.479.22-.68.375a2.789 2.789 0 0 0-.525.57c-.142.208-.259.44-.337.693l-57.389 189.641c0 .253.058.493.149.713s.227.414.389.59c.168.161.376.297.589.395.221.091.467.143.719.143h58.646c.148-.052.285-.13.415-.227.122-.091.239-.201.336-.33a2.197 2.197 0 0 0 .415-.855l8.633-27.532c.071-.161.162-.311.278-.446.104-.137.24-.259.383-.363.148-.104.305-.181.479-.246.169-.064.357-.097.551-.104h79.04c.195.007.376.039.551.104.176.065.331.143.479.246.148.104.278.227.39.363.103.136.2.285.271.446l8.815 27.532c.032.156.091.305.155.453.084.143.162.272.266.402.11.129.221.239.35.33.129.097.271.175.428.227h57.389c.259 0 .512-.052.731-.143.215-.098.422-.233.584-.395.161-.176.298-.37.388-.59.092-.22.143-.46.143-.713l-58.9-189.641zm-23.997 120.368a2.353 2.353 0 0 1-.382.693 2.407 2.407 0 0 1-.584.537 2.706 2.706 0 0 1-.744.324h-50.239a2.685 2.685 0 0 1-.738-.324 2.218 2.218 0 0 1-.583-.537 2.358 2.358 0 0 1-.388-.693 2.54 2.54 0 0 1-.13-.815l25.485-83.406c.091-.232.181-.453.285-.647.11-.194.227-.369.336-.506.13-.142.253-.245.39-.323a.763.763 0 0 1 .763-.025c.117.064.227.155.343.271.111.116.214.259.312.414.097.156.194.344.272.545l25.737 83.678c.001.296-.05.555-.135.814"/><path fill="none" stroke="#000" stroke-miterlimit="10" stroke-width="3.4686" d="M1377.104 330.313a2.355 2.355 0 0 0-.324-.693 2.463 2.463 0 0 0-.524-.57 2.497 2.497 0 0 0-.681-.375 2.755 2.755 0 0 0-.803-.168h-100.996a2.599 2.599 0 0 0-.803.168c-.253.091-.479.22-.68.375a2.789 2.789 0 0 0-.525.57c-.142.208-.259.44-.337.693l-57.389 189.641c0 .253.058.493.149.713s.227.414.389.59c.168.161.376.297.589.395.221.091.467.143.719.143h58.646c.148-.052.285-.13.415-.227.122-.091.239-.201.336-.33a2.197 2.197 0 0 0 .415-.855l8.633-27.532c.071-.161.162-.311.278-.446.104-.137.24-.259.383-.363.148-.104.305-.181.479-.246.169-.064.357-.097.551-.104h79.04c.195.007.376.039.551.104.176.065.331.143.479.246.148.104.278.227.39.363.103.136.2.285.271.446l8.815 27.532c.032.156.091.305.155.453.084.143.162.272.266.402.11.129.221.239.35.33.129.097.271.175.428.227h57.389c.259 0 .512-.052.731-.143.215-.098.422-.233.584-.395.161-.176.298-.37.388-.59.092-.22.143-.46.143-.713l-58.9-189.641zm-23.997 120.368a2.353 2.353 0 0 1-.382.693 2.407 2.407 0 0 1-.584.537 2.706 2.706 0 0 1-.744.324h-50.239a2.685 2.685 0 0 1-.738-.324 2.218 2.218 0 0 1-.583-.537 2.358 2.358 0 0 1-.388-.693 2.54 2.54 0 0 1-.13-.815l25.485-83.406c.091-.232.181-.453.285-.647.11-.194.227-.369.336-.506.13-.142.253-.245.39-.323a.763.763 0 0 1 .763-.025c.117.064.227.155.343.271.111.116.214.259.312.414.097.156.194.344.272.545l25.737 83.678c.001.296-.05.555-.135.814z"/><path fill="#FFE81F" d="M1382.304 322.819c.797 2.546 5.162 16.581 11.257 36.192 6.094 19.61 13.925 44.805 21.651 69.694 7.739 24.89 15.375 49.468 21.074 67.842 5.693 18.388 9.469 30.563 9.469 30.647 0 .259-.052.505-.154.719a1.568 1.568 0 0 1-.39.576 1.921 1.921 0 0 1-1.308.519h-72.797a1.495 1.495 0 0 1-.435-.214 1.965 1.965 0 0 1-.343-.317c-.091-.13-.182-.259-.253-.401a1.851 1.851 0 0 1-.143-.453l-8.814-27.525a2.325 2.325 0 0 0-.266-.467 2.353 2.353 0 0 0-.395-.369 2.912 2.912 0 0 0-.474-.246 2.206 2.206 0 0 0-.557-.116l-68.264.032a1.648 1.648 0 0 0-.544.104c-.168.052-.33.136-.473.233a2.337 2.337 0 0 0-.389.362c-.11.143-.2.298-.285.467l-8.594 27.499a2.565 2.565 0 0 1-.169.467 2.165 2.165 0 0 1-.253.408 1.61 1.61 0 0 1-.343.323c-.123.098-.26.162-.401.214h-74.009c-.252 0-.498-.064-.712-.149a1.822 1.822 0 0 1-.589-.395 2.023 2.023 0 0 1-.402-.583 1.885 1.885 0 0 1-.136-.719c0-.098 3.666-12.273 9.223-30.654 5.551-18.38 12.985-42.965 20.518-67.849a197824.6 197824.6 0 0 1 21.114-69.688 40361.766 40361.766 0 0 1 10.959-36.192c.07-.245.187-.491.329-.699.156-.213.337-.401.531-.557.207-.155.44-.292.687-.389.247-.091.512-.143.79-.162h111.955c.278.02.544.071.79.162.246.104.473.233.673.396.208.161.39.35.531.563.153.22.27.454.341.725m51.592 198.826c.259 0 .505-.052.726-.148.22-.091.421-.221.589-.389.162-.169.291-.362.39-.59.083-.213.142-.459.142-.706l-58.904-189.641a2.608 2.608 0 0 0-.317-.706 2.452 2.452 0 0 0-1.211-.933 2.713 2.713 0 0 0-.803-.169h-100.996a2.72 2.72 0 0 0-.798.169 2.688 2.688 0 0 0-.687.375c-.2.162-.375.351-.518.558a2.83 2.83 0 0 0-.337.706l-57.396 189.641c0 .247.065.493.155.706.091.228.227.421.389.59.168.168.369.298.589.389.22.097.459.148.719.148h58.646c.148-.052.285-.136.414-.214.117-.103.24-.22.331-.343.104-.123.194-.259.259-.407a2.35 2.35 0 0 0 .168-.448l8.627-27.531c.064-.155.162-.311.271-.44.111-.143.24-.259.39-.363.148-.109.304-.188.479-.246.175-.064.355-.103.55-.109h79.04c.194.007.376.045.551.109.175.059.33.137.479.246.149.104.278.221.382.363.11.13.207.285.279.44l8.807 27.531c.039.163.098.312.169.448.072.148.156.284.267.407.097.123.206.24.343.343.13.078.272.162.421.214h57.395M1584.672 372.443c2.649 0 5.35.414 7.908 1.257 2.558.842 4.98 2.111 7.078 3.834a18.499 18.499 0 0 1 5.078 6.528c1.237 2.63 1.949 5.751 1.949 9.352 0 3.484-.692 6.412-1.853 8.88a18.391 18.391 0 0 1-4.508 6.043 21.404 21.404 0 0 1-5.628 3.588c-1.897.829-3.718 1.328-5.2 1.542l-.26.038c-.084 0-.168.014-.252.032-.084 0-.175.007-.266.014h-52.11c-.305 0-.597-.059-.861-.162a2.108 2.108 0 0 1-.7-.479c-.201-.201-.362-.434-.473-.699s-.175-.558-.175-.861v-36.696c0-.298.064-.59.175-.849a2.06 2.06 0 0 1 .473-.699c.194-.208.435-.369.7-.479.265-.116.557-.182.861-.182h48.064zm3.775 33.724c.143-.026.881-.136 1.931-.447a14.152 14.152 0 0 0 3.711-1.761c1.321-.888 2.63-2.125 3.614-3.848.971-1.71 1.612-3.898 1.612-6.697 0-2.791-.615-5.032-1.606-6.826-.997-1.801-2.376-3.147-3.911-4.145-1.523-1.011-3.206-1.658-4.807-2.06a18.13 18.13 0 0 0-4.319-.551h-41.67c-.014.007-.099.026-.214.084a1.47 1.47 0 0 0-.408.267 1.437 1.437 0 0 0-.396.518 1.93 1.93 0 0 0-.182.849v22.901c0 .343.072.621.182.849.104.22.246.395.396.518.149.136.291.214.408.266.115.058.2.078.214.084h45.445"/><path fill="#FFE81F" d="M1747.791 455.493c.312 0 .603.058.868.175.259.116.499.278.699.479.201.207.356.439.473.706.111.259.169.544.169.848v69.132a2.187 2.187 0 0 1-.642 1.56c-.2.201-.44.356-.699.473a2.375 2.375 0 0 1-.868.169l-122.4-.026c-.312-.013-2.015-.052-4.631-.337a74.12 74.12 0 0 1-10.117-1.826c-3.957-1.004-8.348-2.487-12.688-4.663-4.333-2.176-8.614-5.026-12.363-8.808l-42.254-42.345c0-.013-.059-.064-.129-.136-.072-.071-.176-.175-.285-.272a2.012 2.012 0 0 0-.356-.259c-.129-.071-.253-.123-.369-.123a.302.302 0 0 0-.155.039.426.426 0 0 0-.13.136.893.893 0 0 0-.077.246 1.834 1.834 0 0 0-.033.369v55.764c0 .311-.058.596-.175.868a2.29 2.29 0 0 1-.467.699c-.2.194-.439.355-.705.466a2.133 2.133 0 0 1-.861.182h-77.882c-.304 0-.595-.064-.86-.182-.266-.11-.5-.271-.706-.466a2.174 2.174 0 0 1-.636-1.567V323.183c0-.312.053-.596.169-.855.11-.271.272-.505.467-.706.206-.2.44-.355.706-.473.266-.116.557-.168.86-.168l143.348.025c.33.014 2.13.039 4.967.376 2.837.33 6.724.959 11.198 2.138a82.44 82.44 0 0 1 14.838 5.491c5.266 2.565 10.699 5.952 15.855 10.415 5.181 4.481 9.17 9.112 12.24 13.73 3.069 4.611 5.227 9.203 6.735 13.601s2.37 8.588 2.85 12.409c.486 3.814.603 7.267.603 10.143a75.15 75.15 0 0 1-.699 10.266c-.538 3.879-1.463 8.141-3.031 12.519-1.561 4.385-3.743 8.899-6.813 13.304-3.063 4.391-6.995 8.679-12.04 12.591-.116.084-.752.569-1.716 1.282a279.32 279.32 0 0 1-3.712 2.675 166.01 166.01 0 0 1-4.521 3.102c-1.516.998-2.966 1.904-4.171 2.565-.02.013-.123.064-.278.168a3.784 3.784 0 0 0-.53.408 2.786 2.786 0 0 0-.525.647 1.752 1.752 0 0 0-.232.861c0 .169.207.608.667 1.179s1.179 1.27 2.215 1.942c1.029.688 2.376 1.348 4.087 1.833 1.716.499 3.795.823 6.295.843h98.447zm-5.155 63.944v-54.378a2.217 2.217 0 0 0-1.359-2.033 2.1 2.1 0 0 0-.855-.175l-91.113.026c-4.935-.021-9.041-.862-12.429-2.139-3.393-1.263-6.067-2.973-8.121-4.728-2.066-1.755-3.51-3.556-4.442-5.032-.939-1.464-1.36-2.604-1.38-3.019.052-.608.123-.983.376-1.314.252-.311.673-.569 1.425-.933.757-.355 1.833-.822 3.394-1.561 1.567-.726 3.607-1.729 6.288-3.16a84.251 84.251 0 0 0 3.491-1.982 67.827 67.827 0 0 0 3.349-2.144 55.44 55.44 0 0 0 3.135-2.3 38.393 38.393 0 0 0 2.824-2.402c3.037-2.817 5.782-5.764 8.205-8.892 2.416-3.122 4.495-6.399 6.212-9.923a51.358 51.358 0 0 0 3.931-11.224c.9-3.996 1.373-8.245 1.373-12.817 0-2.914-.129-6.179-.596-9.676-.473-3.491-1.282-7.215-2.655-11.063-1.367-3.841-3.29-7.811-5.984-11.774s-6.159-7.928-10.602-11.787c-4.58-3.957-9.482-6.976-14.282-9.274-4.792-2.306-9.468-3.887-13.581-4.981a79.075 79.075 0 0 0-10.155-2.014c-2.519-.323-4.003-.376-4.021-.376h-135.977a2.18 2.18 0 0 0-.842.175 2.205 2.205 0 0 0-.712.473 2.21 2.21 0 0 0-.48.7 2.211 2.211 0 0 0-.174.854v188.871c0 .298.058.583.168.854.123.26.271.505.473.699.201.201.447.363.713.479.265.117.557.169.854.169h63.107c.305 0 .597-.052.861-.169.266-.116.506-.278.707-.479.2-.194.362-.439.473-.699.11-.271.168-.557.168-.854v-64.676c0-.259.02-.466.045-.66.033-.182.078-.33.13-.453a.958.958 0 0 1 .188-.285.67.67 0 0 1 .252-.143c.272-.006.569.078.842.213.278.137.551.324.79.513.24.193.447.382.59.531.155.148.246.259.266.284l53.341 53.399c3.154 3.193 6.891 5.629 10.72 7.494 3.827 1.865 7.745 3.147 11.275 4.028a73.82 73.82 0 0 0 8.912 1.646c2.26.259 3.633.311 3.64.311h115.03a2.13 2.13 0 0 0 1.567-.648c.2-.194.363-.439.473-.699a2.31 2.31 0 0 0 .172-.853M1230.732 320.974c.304 0 .596.071.868.175.266.117.499.272.693.479.208.201.37.44.473.706.117.259.181.551.181.849v63.056c0 .298-.064.583-.181.855a2.071 2.071 0 0 1-.473.699 2.27 2.27 0 0 1-.693.479 2.322 2.322 0 0 1-.868.175h-85.582c-.298 0-.589.071-.849.168a2.464 2.464 0 0 0-.687.473c-.2.195-.362.428-.473.693-.116.26-.174.544-.174.842v136.203c0 .305-.059.603-.168.861a2.18 2.18 0 0 1-.473.699c-.2.208-.44.363-.706.479a2.362 2.362 0 0 1-.861.169l-69.708-.033c-.304 0-.595-.058-.861-.175a2.155 2.155 0 0 1-.706-.466 2.324 2.324 0 0 1-.466-.699 2.157 2.157 0 0 1-.175-.868V390.656c0-.312-.065-.597-.181-.862a2.176 2.176 0 0 0-.46-.706 2.402 2.402 0 0 0-.706-.466 2.403 2.403 0 0 0-.868-.175h-94.15a1.857 1.857 0 0 0-.55.291 1.46 1.46 0 0 0-.415.454 1.992 1.992 0 0 0-.266.582c-.059.215-.091.44-.091.661a2.089 2.089 0 0 0 .195.868c.059.122.136.246.22.362.084.117.188.221.292.311a1989.652 1989.652 0 0 1 12.707 13.393 972.594 972.594 0 0 1 7.843 8.459c2.357 2.577 4.308 4.754 5.434 6.101 1.25 1.503 2.921 3.459 4.728 5.946 1.8 2.486 3.743 5.505 5.518 9.145 1.781 3.634 3.394 7.889 4.579 12.823 1.179 4.941 1.911 10.583 1.911 16.995 0 6.411-.862 12.176-2.215 17.305a65.317 65.317 0 0 1-5.194 13.381 63.346 63.346 0 0 1-5.978 9.353c-1.878 2.436-3.511 4.171-4.547 5.207s-2.765 2.746-5.194 4.702a63.195 63.195 0 0 1-9.424 6.321 63.773 63.773 0 0 1-13.756 5.519c-5.317 1.45-11.366 2.376-18.179 2.376l-197.886.033c-.298 0-.583-.065-.849-.182a2.226 2.226 0 0 1-.699-.467 2.284 2.284 0 0 1-.479-.712 2.048 2.048 0 0 1-.181-.849V457.7c0-.311.058-.596.175-.854.11-.26.271-.499.466-.699.201-.208.447-.363.706-.479.266-.11.557-.175.862-.175H916.5c.35 0 .687-.071.984-.201.305-.13.577-.311.803-.544a2.49 2.49 0 0 0 .538-.81c.123-.305.195-.641.195-.991a2.24 2.24 0 0 0-.045-.466 2.199 2.199 0 0 0-.13-.428 1.769 1.769 0 0 0-.207-.395 2.68 2.68 0 0 0-.266-.369c-.221-.233-1.483-1.522-3.349-3.472s-4.339-4.547-7.021-7.396a674.698 674.698 0 0 1-8.206-8.893c-2.656-2.947-5.097-5.744-6.917-7.985-.168-.22-1.14-1.464-2.506-3.563a76.224 76.224 0 0 1-4.812-8.717c-1.723-3.653-3.426-8.006-4.689-12.896-1.276-4.89-2.111-10.311-2.111-16.113 0-5.81.9-11.225 2.416-16.186 1.509-4.961 3.633-9.481 6.069-13.497a65.137 65.137 0 0 1 7.946-10.53c2.759-2.993 5.544-5.428 8.044-7.273 2.494-1.859 5.453-3.641 8.679-5.279a85.087 85.087 0 0 1 10.304-4.384c3.575-1.25 7.234-2.287 10.758-2.999 3.536-.699 6.949-1.107 10.058-1.107l287.697-.025zm-5.188 57.881v-48.29c0-.298-.064-.596-.174-.854a2.19 2.19 0 0 0-.467-.706 2.425 2.425 0 0 0-.712-.473 2.188 2.188 0 0 0-.855-.169H943.035c-2.59 0-5.524.344-8.607.972-3.096.622-6.328 1.522-9.541 2.643-3.206 1.114-6.373 2.436-9.313 3.912s-5.654 3.096-7.947 4.793c-2.48 1.833-5.065 4.17-7.552 6.93a57.976 57.976 0 0 0-6.917 9.501c-2.066 3.556-3.828 7.475-5.064 11.684a47.456 47.456 0 0 0-1.963 13.459c0 5.064.784 9.89 1.95 14.268s2.726 8.329 4.281 11.632a73.334 73.334 0 0 0 4.301 7.843c1.172 1.859 1.956 2.883 1.962 2.896 1.736 2.138 4.158 4.903 6.826 7.856a579.072 579.072 0 0 0 8.264 8.944c2.701 2.875 5.194 5.492 7.04 7.422a1177.56 1177.56 0 0 1 3.147 3.271c.408.46.765.952 1.075 1.464.318.519.583 1.056.791 1.612a9.787 9.787 0 0 1-.13 7.344 10.022 10.022 0 0 1-2.131 3.167 10.03 10.03 0 0 1-3.147 2.131 10.093 10.093 0 0 1-3.86.777l-156.889-.039c-.304 0-.596.064-.861.182a2.291 2.291 0 0 0-.706.479 2.388 2.388 0 0 0-.466.699 2.136 2.136 0 0 0-.175.854v54.353c0 .31.058.596.175.854.11.266.271.505.466.712.201.194.44.351.706.467.266.109.557.168.861.168l190.484.032c2.797 0 5.919-.175 9.235-.667a58.461 58.461 0 0 0 10.427-2.525 54.9 54.9 0 0 0 10.933-5.11 57.6 57.6 0 0 0 10.738-8.465c.919-.926 2.364-2.486 4.015-4.65a56.672 56.672 0 0 0 5.24-8.315 57.16 57.16 0 0 0 4.553-11.826c1.186-4.521 1.943-9.611 1.943-15.246 0-5.544-.589-10.414-1.561-14.688-.958-4.288-2.299-7.979-3.801-11.16a53.374 53.374 0 0 0-4.754-8.128c-1.606-2.267-3.141-4.112-4.41-5.621-.953-1.166-2.455-2.856-4.307-4.91a703.512 703.512 0 0 0-6.483-7.027c-2.396-2.57-4.98-5.323-7.571-8.069-2.597-2.739-5.194-5.479-7.617-8.018-.466-.46-.88-.952-1.243-1.483a9.07 9.07 0 0 1-.92-1.658 9.841 9.841 0 0 1-.563-1.774 9.386 9.386 0 0 1-.188-1.865c0-1.049.162-2.072.467-3.031.317-.952.764-1.839 1.34-2.636s1.282-1.496 2.079-2.079a9.351 9.351 0 0 1 2.681-1.321c.175-.052.363-.104.538-.143.181-.032.363-.064.538-.091.181-.025.362-.039.537-.052.188-.025.369-.025.538-.025h96.397a7.356 7.356 0 0 1 5.214 2.163 7.654 7.654 0 0 1 1.58 2.357c.369.881.577 1.853.577 2.869l.026 130.964c0 .31.058.596.168.854.117.266.272.505.473.712.201.194.434.351.7.467.259.109.544.168.842.168l54.935.032c.305 0 .589-.058.855-.175.265-.116.492-.271.699-.479a2.209 2.209 0 0 0 .66-1.541l-.039-131.002c0-1.017.208-1.988.59-2.869a7.396 7.396 0 0 1 1.581-2.357 7.557 7.557 0 0 1 2.357-1.58 7.347 7.347 0 0 1 2.875-.583h80.368c.305 0 .596-.052.855-.168.266-.117.505-.272.712-.474.194-.2.356-.434.467-.705a2.3 2.3 0 0 0 .173-.86"/><path d="M1742.895 598.997v-48.289c0-.298-.064-.583-.174-.854a2.02 2.02 0 0 0-.473-.7 1.968 1.968 0 0 0-.7-.466 2.163 2.163 0 0 0-.868-.182h-118.438c-2.584 0-5.518.35-8.606.972-3.09.622-6.328 1.528-9.533 2.643-3.206 1.113-6.381 2.435-9.314 3.925-2.939 1.464-5.66 3.082-7.953 4.792-2.474 1.826-5.059 4.158-7.539 6.917a57.53 57.53 0 0 0-6.924 9.508 53.204 53.204 0 0 0-5.07 11.671c-1.238 4.21-1.963 8.704-1.963 13.433 0 5.077.784 9.909 1.949 14.287a69.68 69.68 0 0 0 4.295 11.645 71.963 71.963 0 0 0 4.287 7.851c1.179 1.852 1.956 2.875 1.969 2.888 1.735 2.151 4.151 4.909 6.813 7.863a738.06 738.06 0 0 0 8.271 8.938c2.701 2.875 5.194 5.505 7.034 7.435 1.839 1.918 3.03 3.148 3.121 3.265.414.453.783.945 1.101 1.451.318.518.584 1.05.804 1.605.207.558.376 1.141.479 1.724a9.09 9.09 0 0 1 .168 1.774 9.905 9.905 0 0 1-.783 3.873 9.812 9.812 0 0 1-2.131 3.16 10.012 10.012 0 0 1-3.148 2.125 9.82 9.82 0 0 1-3.859.776h-108.179c-4.936-.025-9.048-.867-12.441-2.137-3.4-1.27-6.069-2.979-8.136-4.729-2.059-1.762-3.516-3.562-4.448-5.038-.939-1.465-1.367-2.591-1.394-3.019.065-.608.15-.984.402-1.295.246-.337.674-.583 1.425-.946.751-.362 1.833-.829 3.394-1.554a137.703 137.703 0 0 0 6.309-3.174 76.894 76.894 0 0 0 3.465-1.969 67.845 67.845 0 0 0 3.349-2.163 59.64 59.64 0 0 0 3.141-2.28 46.117 46.117 0 0 0 2.812-2.409c3.03-2.823 5.783-5.777 8.205-8.886 2.416-3.122 4.509-6.412 6.218-9.922a51.349 51.349 0 0 0 3.944-11.23c.906-4.003 1.38-8.252 1.38-12.823 0-2.915-.13-6.166-.597-9.663-.473-3.498-1.281-7.229-2.654-11.063a51.948 51.948 0 0 0-5.998-11.787c-2.701-3.964-6.165-7.928-10.615-11.775-4.579-3.963-9.488-6.981-14.281-9.287-4.792-2.292-9.475-3.886-13.581-4.974a77.704 77.704 0 0 0-10.155-2.008c-2.519-.337-4.016-.389-4.028-.389h-135.944c-.304 0-.595.064-.867.182-.26.104-.499.259-.693.466-.2.194-.363.428-.473.7a2.283 2.283 0 0 0-.175.854v188.884c0 .297.065.582.175.842.109.259.272.505.467.712.193.194.427.362.693.467.258.116.55.181.848.181h63.134c.298 0 .589-.064.855-.181.259-.104.505-.272.699-.467.2-.207.369-.453.479-.712a1.97 1.97 0 0 0 .182-.842l-.033-64.688c0-.26.02-.467.046-.648a2.03 2.03 0 0 1 .122-.466c.059-.116.123-.207.195-.285a.69.69 0 0 1 .246-.143c.278 0 .569.078.848.221.285.143.551.324.79.518.24.182.44.376.59.531.155.143.246.26.266.272l53.341 53.405c3.154 3.199 6.897 5.635 10.726 7.488 3.834 1.864 7.753 3.159 11.282 4.04a68.96 68.96 0 0 0 8.918 1.646c2.254.272 3.634.311 3.647.311l165.703-.025a64.61 64.61 0 0 0 9.217-.674 56.53 56.53 0 0 0 10.413-2.513 55.15 55.15 0 0 0 10.933-5.104 57.518 57.518 0 0 0 10.732-8.484c.933-.92 2.383-2.474 4.035-4.638a55.873 55.873 0 0 0 5.252-8.303 57.225 57.225 0 0 0 4.554-11.839c1.197-4.521 1.942-9.611 1.942-15.259 0-5.544-.59-10.402-1.554-14.676-.966-4.275-2.307-7.967-3.803-11.153-1.502-3.187-3.16-5.854-4.754-8.135-1.6-2.268-3.146-4.119-4.41-5.635-.965-1.152-2.455-2.837-4.32-4.896a764.738 764.738 0 0 0-6.47-7.007 1503.11 1503.11 0 0 0-7.577-8.07 2782.232 2782.232 0 0 0-7.61-8.018 9.475 9.475 0 0 1-1.257-1.503 9.812 9.812 0 0 1-.919-1.645 9.861 9.861 0 0 1-.558-1.775 9.355 9.355 0 0 1-.188-1.852c0-1.063.168-2.086.473-3.045a9.697 9.697 0 0 1 1.341-2.629 8.86 8.86 0 0 1 2.072-2.072 9.017 9.017 0 0 1 2.688-1.335c.182-.052.35-.104.531-.143.182-.025.351-.064.531-.091.182-.025.356-.038.544-.052.175-.013.363-.025.544-.025h88.988c.305 0 .597-.052.854-.155a2.29 2.29 0 0 0 .7-.479c.201-.207.369-.44.486-.699.106-.273.171-.558.171-.869m-300.242 24.248c-1.141 2.475-2.733 4.457-4.508 6.049-1.787 1.581-3.744 2.747-5.635 3.588-1.892.83-3.712 1.322-5.201 1.529-.084.013-.168.026-.253.052-.091 0-.168.013-.252.026-.084 0-.175.013-.266.013h-52.11c-.305 0-.597-.064-.861-.168a2.074 2.074 0 0 1-.7-.466 2.326 2.326 0 0 1-.473-.7 2.283 2.283 0 0 1-.175-.868v-36.696c0-.298.064-.583.175-.842.11-.272.271-.506.473-.713.194-.194.435-.362.7-.466a2.13 2.13 0 0 1 .861-.182h48.056c2.656 0 5.356.402 7.915 1.244s4.98 2.11 7.072 3.834c2.085 1.723 3.848 3.886 5.084 6.527 1.23 2.644 1.949 5.766 1.949 9.366.001 3.473-.705 6.412-1.851 8.873"/><path fill="none" stroke="#000" stroke-miterlimit="10" stroke-width="3.4686" d="M1742.895 598.997v-48.289c0-.298-.064-.583-.174-.854a2.02 2.02 0 0 0-.473-.7 1.968 1.968 0 0 0-.7-.466 2.163 2.163 0 0 0-.868-.182h-118.438c-2.584 0-5.518.35-8.606.972-3.09.622-6.328 1.528-9.533 2.643-3.206 1.113-6.381 2.435-9.314 3.925-2.939 1.464-5.66 3.082-7.953 4.792-2.474 1.826-5.059 4.158-7.539 6.917a57.53 57.53 0 0 0-6.924 9.508 53.204 53.204 0 0 0-5.07 11.671c-1.238 4.21-1.963 8.704-1.963 13.433 0 5.077.784 9.909 1.949 14.287a69.68 69.68 0 0 0 4.295 11.645 71.963 71.963 0 0 0 4.287 7.851c1.179 1.852 1.956 2.875 1.969 2.888 1.735 2.151 4.151 4.909 6.813 7.863a738.06 738.06 0 0 0 8.271 8.938c2.701 2.875 5.194 5.505 7.034 7.435 1.839 1.918 3.03 3.148 3.121 3.265.414.453.783.945 1.101 1.451.318.518.584 1.05.804 1.605.207.558.376 1.141.479 1.724a9.09 9.09 0 0 1 .168 1.774 9.905 9.905 0 0 1-.783 3.873 9.812 9.812 0 0 1-2.131 3.16 10.012 10.012 0 0 1-3.148 2.125 9.82 9.82 0 0 1-3.859.776h-108.179c-4.936-.025-9.048-.867-12.441-2.137-3.4-1.27-6.069-2.979-8.136-4.729-2.059-1.762-3.516-3.562-4.448-5.038-.939-1.465-1.367-2.591-1.394-3.019.065-.608.15-.984.402-1.295.246-.337.674-.583 1.425-.946.751-.362 1.833-.829 3.394-1.554a137.703 137.703 0 0 0 6.309-3.174 76.894 76.894 0 0 0 3.465-1.969 67.845 67.845 0 0 0 3.349-2.163 59.64 59.64 0 0 0 3.141-2.28 46.117 46.117 0 0 0 2.812-2.409c3.03-2.823 5.783-5.777 8.205-8.886 2.416-3.122 4.509-6.412 6.218-9.922a51.349 51.349 0 0 0 3.944-11.23c.906-4.003 1.38-8.252 1.38-12.823 0-2.915-.13-6.166-.597-9.663-.473-3.498-1.281-7.229-2.654-11.063a51.948 51.948 0 0 0-5.998-11.787c-2.701-3.964-6.165-7.928-10.615-11.775-4.579-3.963-9.488-6.981-14.281-9.287-4.792-2.292-9.475-3.886-13.581-4.974a77.704 77.704 0 0 0-10.155-2.008c-2.519-.337-4.016-.389-4.028-.389h-135.944c-.304 0-.595.064-.867.182-.26.104-.499.259-.693.466-.2.194-.363.428-.473.7a2.283 2.283 0 0 0-.175.854v188.884c0 .297.065.582.175.842.109.259.272.505.467.712.193.194.427.362.693.467.258.116.55.181.848.181h63.134c.298 0 .589-.064.855-.181.259-.104.505-.272.699-.467.2-.207.369-.453.479-.712a1.97 1.97 0 0 0 .182-.842l-.033-64.688c0-.26.02-.467.046-.648a2.03 2.03 0 0 1 .122-.466c.059-.116.123-.207.195-.285a.69.69 0 0 1 .246-.143c.278 0 .569.078.848.221.285.143.551.324.79.518.24.182.44.376.59.531.155.143.246.26.266.272l53.341 53.405c3.154 3.199 6.897 5.635 10.726 7.488 3.834 1.864 7.753 3.159 11.282 4.04a68.96 68.96 0 0 0 8.918 1.646c2.254.272 3.634.311 3.647.311l165.703-.025a64.61 64.61 0 0 0 9.217-.674 56.53 56.53 0 0 0 10.413-2.513 55.15 55.15 0 0 0 10.933-5.104 57.518 57.518 0 0 0 10.732-8.484c.933-.92 2.383-2.474 4.035-4.638a55.873 55.873 0 0 0 5.252-8.303 57.225 57.225 0 0 0 4.554-11.839c1.197-4.521 1.942-9.611 1.942-15.259 0-5.544-.59-10.402-1.554-14.676-.966-4.275-2.307-7.967-3.803-11.153-1.502-3.187-3.16-5.854-4.754-8.135-1.6-2.268-3.146-4.119-4.41-5.635-.965-1.152-2.455-2.837-4.32-4.896a764.738 764.738 0 0 0-6.47-7.007 1503.11 1503.11 0 0 0-7.577-8.07 2782.232 2782.232 0 0 0-7.61-8.018 9.475 9.475 0 0 1-1.257-1.503 9.812 9.812 0 0 1-.919-1.645 9.861 9.861 0 0 1-.558-1.775 9.355 9.355 0 0 1-.188-1.852c0-1.063.168-2.086.473-3.045a9.697 9.697 0 0 1 1.341-2.629 8.86 8.86 0 0 1 2.072-2.072 9.017 9.017 0 0 1 2.688-1.335c.182-.052.35-.104.531-.143.182-.025.351-.064.531-.091.182-.025.356-.038.544-.052.175-.013.363-.025.544-.025h88.988c.305 0 .597-.052.854-.155a2.29 2.29 0 0 0 .7-.479c.201-.207.369-.44.486-.699.106-.273.171-.558.171-.869m-300.242 24.248c-1.141 2.475-2.733 4.457-4.508 6.049-1.787 1.581-3.744 2.747-5.635 3.588-1.892.83-3.712 1.322-5.201 1.529-.084.013-.168.026-.253.052-.091 0-.168.013-.252.026-.084 0-.175.013-.266.013h-52.11c-.305 0-.597-.064-.861-.168a2.074 2.074 0 0 1-.7-.466 2.326 2.326 0 0 1-.473-.7 2.283 2.283 0 0 1-.175-.868v-36.696c0-.298.064-.583.175-.842.11-.272.271-.506.473-.713.194-.194.435-.362.7-.466a2.13 2.13 0 0 1 .861-.182h48.056c2.656 0 5.356.402 7.915 1.244s4.98 2.11 7.072 3.834c2.085 1.723 3.848 3.886 5.084 6.527 1.23 2.644 1.949 5.766 1.949 9.366.001 3.473-.705 6.412-1.851 8.873z"/><path d="M1058.662 550.073a2.218 2.218 0 0 0-.078-.674 1.373 1.373 0 0 0-.259-.491 1.08 1.08 0 0 0-.389-.299 1.15 1.15 0 0 0-.466-.104h-61.398a.879.879 0 0 0-.266.052 1.052 1.052 0 0 0-.207.169c-.065.064-.117.155-.162.232a1.376 1.376 0 0 0-.091.285l-20.731 70.09c-.045.168-.117.35-.201.492a1.6 1.6 0 0 1-.317.401 1.103 1.103 0 0 1-.421.26 1.28 1.28 0 0 1-.499.09c-.213 0-.395-.025-.557-.09a1.135 1.135 0 0 1-.408-.299 1.797 1.797 0 0 1-.298-.466 3.865 3.865 0 0 1-.22-.609l-21.528-69.895a.863.863 0 0 0-.078-.26c-.045-.077-.09-.155-.162-.232-.064-.053-.136-.117-.213-.156a.686.686 0 0 0-.272-.064h-74.345l-20.362 70.607a3.83 3.83 0 0 1-.22.609 1.814 1.814 0 0 1-.298.466c-.123.13-.252.233-.408.299a1.48 1.48 0 0 1-.55.09c-.182 0-.356-.025-.505-.09a1.173 1.173 0 0 1-.427-.26 1.727 1.727 0 0 1-.311-.401 2.118 2.118 0 0 1-.201-.492l-20.79-70.154a.712.712 0 0 0-.078-.233.718.718 0 0 0-.143-.207.982.982 0 0 0-.182-.143.64.64 0 0 0-.239-.091h-66.884a1.17 1.17 0 0 0-.473.104 1.071 1.071 0 0 0-.376.26c-.11.116-.194.233-.252.388a1.355 1.355 0 0 0-.097.479l59.112 191.073a1.676 1.676 0 0 0 .414.712c.091.077.201.155.311.194.11.052.246.077.382.077h57.577a.73.73 0 0 0 .304-.116c.091-.064.188-.143.279-.246.084-.091.162-.194.227-.312.065-.104.11-.22.142-.336l28.595-91.048c.045-.182.11-.35.194-.506.091-.143.188-.271.311-.389.129-.104.266-.182.428-.246a1.31 1.31 0 0 1 .505-.09c.221 0 .408.025.583.077.182.064.337.142.466.246.129.116.24.246.331.401.084.143.149.324.188.506l27.792 91.346c.039.104.084.194.155.285.059.077.13.155.214.207.084.064.175.104.272.143.104.026.201.052.304.052l58.011.025a.915.915 0 0 0 .382-.077c.11-.039.22-.117.311-.194.091-.091.175-.194.24-.324a1.94 1.94 0 0 0 .169-.414l58.163-190.709"/><path fill="none" stroke="#000" stroke-miterlimit="10" stroke-width="3.4686" d="M1058.662 550.073a2.218 2.218 0 0 0-.078-.674 1.373 1.373 0 0 0-.259-.491 1.08 1.08 0 0 0-.389-.299 1.15 1.15 0 0 0-.466-.104h-61.398a.879.879 0 0 0-.266.052 1.052 1.052 0 0 0-.207.169c-.065.064-.117.155-.162.232a1.376 1.376 0 0 0-.091.285l-20.731 70.09c-.045.168-.117.35-.201.492a1.6 1.6 0 0 1-.317.401 1.103 1.103 0 0 1-.421.26 1.28 1.28 0 0 1-.499.09c-.213 0-.395-.025-.557-.09a1.135 1.135 0 0 1-.408-.299 1.797 1.797 0 0 1-.298-.466 3.865 3.865 0 0 1-.22-.609l-21.528-69.895a.863.863 0 0 0-.078-.26c-.045-.077-.09-.155-.162-.232-.064-.053-.136-.117-.213-.156a.686.686 0 0 0-.272-.064h-74.345l-20.362 70.607a3.83 3.83 0 0 1-.22.609 1.814 1.814 0 0 1-.298.466c-.123.13-.252.233-.408.299a1.48 1.48 0 0 1-.55.09c-.182 0-.356-.025-.505-.09a1.173 1.173 0 0 1-.427-.26 1.727 1.727 0 0 1-.311-.401 2.118 2.118 0 0 1-.201-.492l-20.79-70.154a.712.712 0 0 0-.078-.233.718.718 0 0 0-.143-.207.982.982 0 0 0-.182-.143.64.64 0 0 0-.239-.091h-66.884a1.17 1.17 0 0 0-.473.104 1.071 1.071 0 0 0-.376.26c-.11.116-.194.233-.252.388a1.355 1.355 0 0 0-.097.479l59.112 191.073a1.676 1.676 0 0 0 .414.712c.091.077.201.155.311.194.11.052.246.077.382.077h57.577a.73.73 0 0 0 .304-.116c.091-.064.188-.143.279-.246.084-.091.162-.194.227-.312.065-.104.11-.22.142-.336l28.595-91.048c.045-.182.11-.35.194-.506.091-.143.188-.271.311-.389.129-.104.266-.182.428-.246a1.31 1.31 0 0 1 .505-.09c.221 0 .408.025.583.077.182.064.337.142.466.246.129.116.24.246.331.401.084.143.149.324.188.506l27.792 91.346c.039.104.084.194.155.285.059.077.13.155.214.207.084.064.175.104.272.143.104.026.201.052.304.052l58.011.025a.915.915 0 0 0 .382-.077c.11-.039.22-.117.311-.194.091-.091.175-.194.24-.324a1.94 1.94 0 0 0 .169-.414l58.163-190.709"/><path d="M1212.481 550.319a2.326 2.326 0 0 0-.324-.7c-.148-.22-.317-.4-.524-.569a2.586 2.586 0 0 0-.68-.376 2.755 2.755 0 0 0-.803-.168h-101.003a2.675 2.675 0 0 0-.803.168 2.453 2.453 0 0 0-.673.376c-.2.169-.375.35-.524.569a2.326 2.326 0 0 0-.336.7l-57.39 189.635c0 .259.052.492.149.713.091.22.22.414.389.595.175.156.37.299.589.39.221.091.467.142.719.142h58.646c.149-.051.285-.129.414-.22.124-.104.233-.207.337-.337.097-.13.181-.259.253-.401a1.9 1.9 0 0 0 .162-.453l8.627-27.525c.078-.169.168-.312.272-.454.117-.13.246-.259.395-.362a1.934 1.934 0 0 1 1.029-.35h79.041c.188.013.375.039.55.104.168.064.33.142.479.246.149.104.272.232.389.362.104.143.201.285.272.454l8.814 27.525c.032.155.091.311.156.453.078.143.162.271.266.401.11.13.22.233.343.337.136.091.272.169.434.22h57.389c.259 0 .505-.051.726-.142.22-.091.421-.233.583-.39.168-.181.298-.375.395-.595.085-.221.136-.454.136-.713l-58.894-189.635zm-24.002 120.361c-.084.26-.213.493-.375.7a3.253 3.253 0 0 1-.583.53 2.49 2.49 0 0 1-.745.324h-50.246a2.443 2.443 0 0 1-.732-.324 2.714 2.714 0 0 1-.583-.53 2.448 2.448 0 0 1-.388-.7 2.568 2.568 0 0 1-.13-.815l25.486-83.405c.084-.233.181-.454.285-.648s.227-.362.337-.505a1.59 1.59 0 0 1 .388-.324.77.77 0 0 1 .402-.116.82.82 0 0 1 .355.091c.124.065.233.155.35.272.11.116.207.258.311.414.097.155.188.35.272.544l25.738 83.678c0 .296-.052.555-.142.814"/><path fill="none" stroke="#000" stroke-miterlimit="10" stroke-width="3.4686" d="M1212.481 550.319a2.326 2.326 0 0 0-.324-.7c-.148-.22-.317-.4-.524-.569a2.586 2.586 0 0 0-.68-.376 2.755 2.755 0 0 0-.803-.168h-101.003a2.675 2.675 0 0 0-.803.168 2.453 2.453 0 0 0-.673.376c-.2.169-.375.35-.524.569a2.326 2.326 0 0 0-.336.7l-57.39 189.635c0 .259.052.492.149.713.091.22.22.414.389.595.175.156.37.299.589.39.221.091.467.142.719.142h58.646c.149-.051.285-.129.414-.22.124-.104.233-.207.337-.337.097-.13.181-.259.253-.401a1.9 1.9 0 0 0 .162-.453l8.627-27.525c.078-.169.168-.312.272-.454.117-.13.246-.259.395-.362a1.934 1.934 0 0 1 1.029-.35h79.041c.188.013.375.039.55.104.168.064.33.142.479.246.149.104.272.232.389.362.104.143.201.285.272.454l8.814 27.525c.032.155.091.311.156.453.078.143.162.271.266.401.11.13.22.233.343.337.136.091.272.169.434.22h57.389c.259 0 .505-.051.726-.142.22-.091.421-.233.583-.39.168-.181.298-.375.395-.595.085-.221.136-.454.136-.713l-58.894-189.635zm-24.002 120.361c-.084.26-.213.493-.375.7a3.253 3.253 0 0 1-.583.53 2.49 2.49 0 0 1-.745.324h-50.246a2.443 2.443 0 0 1-.732-.324 2.714 2.714 0 0 1-.583-.53 2.448 2.448 0 0 1-.388-.7 2.568 2.568 0 0 1-.13-.815l25.486-83.405c.084-.233.181-.454.285-.648s.227-.362.337-.505a1.59 1.59 0 0 1 .388-.324.77.77 0 0 1 .402-.116.82.82 0 0 1 .355.091c.124.065.233.155.35.272.11.116.207.258.311.414.097.155.188.35.272.544l25.738 83.678c0 .296-.052.555-.142.814z"/><path fill="#FFE81F" d="M1747.791 540.979c.312 0 .603.052.868.169.259.116.499.285.699.479.201.207.356.439.473.699.111.272.169.558.169.854v63.03c0 .312-.058.597-.169.855a2.295 2.295 0 0 1-.473.712c-.2.194-.44.351-.699.467a2.374 2.374 0 0 1-.868.168h-96.358a2.439 2.439 0 0 0-.557.298 2.508 2.508 0 0 0-.422.479 2.44 2.44 0 0 0-.259.583c-.058.22-.084.44-.084.66 0 .156.02.312.052.44.032.155.078.285.143.414.058.117.136.234.22.351.091.116.182.221.292.312.933.958 2.739 2.861 5 5.245 2.254 2.383 4.968 5.26 7.701 8.174 2.732 2.927 5.491 5.881 7.849 8.459 2.352 2.577 4.301 4.754 5.428 6.101 1.25 1.502 2.921 3.459 4.729 5.945a62.594 62.594 0 0 1 5.504 9.145 61.145 61.145 0 0 1 4.566 12.812c1.173 4.935 1.904 10.569 1.904 16.981 0 6.411-.861 12.202-2.216 17.317a64.767 64.767 0 0 1-11.145 22.748c-1.878 2.436-3.51 4.183-4.54 5.206a62.078 62.078 0 0 1-5.193 4.689 61.983 61.983 0 0 1-9.424 6.309 63.269 63.269 0 0 1-13.757 5.544c-5.317 1.451-11.366 2.384-18.174 2.384h-165.703c-.312-.013-2.015-.053-4.644-.324a76.034 76.034 0 0 1-10.116-1.839c-3.964-1.011-8.361-2.487-12.7-4.664-4.334-2.176-8.628-5.025-12.371-8.808l-42.221-42.344c-.014 0-.059-.052-.13-.13a4.413 4.413 0 0 0-.285-.259 1.976 1.976 0 0 0-.375-.26.728.728 0 0 0-.37-.129l-.369 56.541c0 .31-.07.595-.174.867a2.134 2.134 0 0 1-.48.699c-.2.194-.427.363-.699.467a2.125 2.125 0 0 1-.861.182h-77.906c-.305 0-.603-.065-.861-.182a2.162 2.162 0 0 1-.707-.467 1.95 1.95 0 0 1-.473-.699 2.3 2.3 0 0 1-.168-.867v-203.61c0-.31.059-.595.168-.854.117-.272.285-.505.486-.712.2-.194.44-.351.706-.467.259-.117.551-.169.849-.169l143.34.026c.33 0 2.131.039 4.968.376 2.85.337 6.729.958 11.21 2.15 4.488 1.191 9.579 2.928 14.845 5.492 5.26 2.564 10.693 5.958 15.867 10.44 5.169 4.468 9.152 9.093 12.222 13.704a59.056 59.056 0 0 1 6.742 13.587c1.51 4.405 2.371 8.602 2.857 12.423.491 3.808.602 7.24.602 10.129 0 2.876-.149 6.387-.692 10.259-.545 3.886-1.483 8.148-3.038 12.526a56.939 56.939 0 0 1-6.827 13.303c-3.069 4.404-7 8.679-12.046 12.591-.117.091-.751.569-1.729 1.282-.965.712-2.267 1.658-3.697 2.682a212.207 212.207 0 0 1-4.521 3.108c-1.515 1.01-2.973 1.917-4.178 2.578-.019.013-.123.078-.271.168a4.188 4.188 0 0 0-.524.401c-.188.194-.37.401-.505.648-.144.246-.234.53-.234.854 0 .155.202.596.668 1.179.459.57 1.179 1.256 2.215 1.943 1.03.673 2.377 1.333 4.087 1.826 1.717.492 3.795.828 6.302.841h108.146c.343 0 .68-.077.978-.206.305-.13.576-.311.797-.545a2.504 2.504 0 0 0 .744-1.787 2.26 2.26 0 0 0-.045-.479 3.06 3.06 0 0 0-.123-.44 3.096 3.096 0 0 0-.207-.401c-.078-.129-.175-.232-.271-.35a583.053 583.053 0 0 1-3.343-3.471 1544.148 1544.148 0 0 1-7.026-7.41 610.667 610.667 0 0 1-8.2-8.911c-2.662-2.941-5.11-5.738-6.91-7.979-.182-.22-1.16-1.464-2.507-3.563a73.784 73.784 0 0 1-4.824-8.704 74.198 74.198 0 0 1-4.696-12.902c-1.263-4.883-2.098-10.31-2.098-16.126 0-5.79.899-11.204 2.409-16.165 1.516-4.962 3.633-9.47 6.067-13.498a65.797 65.797 0 0 1 7.941-10.53c2.765-2.993 5.551-5.428 8.05-7.293 2.494-1.84 5.453-3.627 8.691-5.259 3.219-1.645 6.724-3.135 10.298-4.392a83.5 83.5 0 0 1 10.759-3.005c3.528-.712 6.948-1.102 10.051-1.102h125.801zm-5.155 57.875v-48.276c0-.311-.064-.596-.175-.868a2.115 2.115 0 0 0-.473-.698 2.146 2.146 0 0 0-.699-.479 2.4 2.4 0 0 0-.868-.169h-118.438c-2.584 0-5.518.35-8.607.972s-6.334 1.528-9.533 2.642c-3.206 1.114-6.38 2.436-9.314 3.913-2.946 1.477-5.66 3.096-7.952 4.806-2.48 1.826-5.059 4.158-7.539 6.916a57.353 57.353 0 0 0-6.924 9.495c-2.072 3.563-3.827 7.474-5.071 11.685-1.236 4.209-1.962 8.704-1.962 13.432 0 5.077.777 9.896 1.949 14.287 1.166 4.391 2.727 8.342 4.288 11.645a73.955 73.955 0 0 0 4.294 7.851c1.179 1.852 1.955 2.875 1.969 2.888 1.735 2.139 4.151 4.909 6.813 7.85a648.199 648.199 0 0 0 8.271 8.951c2.7 2.876 5.194 5.492 7.027 7.423 1.846 1.93 3.037 3.16 3.128 3.276.414.44.783.933 1.102 1.451.316.518.582 1.049.802 1.605.208.558.369 1.127.48 1.724.116.582.168 1.179.168 1.787 0 1.36-.279 2.668-.783 3.859a9.747 9.747 0 0 1-2.132 3.148 9.906 9.906 0 0 1-3.146 2.137 9.823 9.823 0 0 1-3.86.777h-108.18c-4.935-.026-9.047-.867-12.44-2.137-3.401-1.27-6.068-2.979-8.135-4.728-2.061-1.763-3.518-3.563-4.45-5.04-.938-1.463-1.366-2.603-1.392-3.018.064-.608.142-.984.396-1.308.252-.324.68-.57 1.431-.946.745-.349 1.833-.815 3.394-1.541a139.28 139.28 0 0 0 6.309-3.174 86.332 86.332 0 0 0 3.465-1.981 64.41 64.41 0 0 0 3.348-2.15 58.49 58.49 0 0 0 3.135-2.28 41.68 41.68 0 0 0 2.817-2.422c3.031-2.811 5.784-5.751 8.206-8.886 2.416-3.109 4.508-6.399 6.211-9.923a50.681 50.681 0 0 0 3.951-11.218c.906-4.002 1.379-8.25 1.379-12.823 0-2.914-.13-6.178-.596-9.676-.479-3.483-1.289-7.215-2.655-11.062a51.864 51.864 0 0 0-5.997-11.774c-2.7-3.964-6.166-7.928-10.622-11.788-4.572-3.95-9.482-6.969-14.274-9.274-4.799-2.306-9.475-3.886-13.581-4.974a78.286 78.286 0 0 0-10.162-2.021c-2.513-.324-4.009-.376-4.021-.376H1307.04c-.306 0-.597.064-.869.169a2.128 2.128 0 0 0-.692.479 2.146 2.146 0 0 0-.473.698c-.11.272-.175.558-.175.868v188.857c0 .298.064.596.175.855a2.332 2.332 0 0 0 1.159 1.191c.26.104.544.169.849.169h63.134c.298 0 .59-.065.848-.169.267-.13.506-.285.7-.492.207-.194.376-.44.485-.699.117-.26.182-.558.182-.855l-.032-64.675c0-.26.013-.467.045-.648.026-.193.071-.336.117-.466a1.02 1.02 0 0 1 .2-.285.717.717 0 0 1 .246-.143c.278 0 .57.078.849.207.284.144.551.338.784.519.245.194.439.389.596.531.155.155.246.259.265.285l53.335 53.393c3.161 3.199 6.904 5.647 10.732 7.514 3.834 1.852 7.752 3.147 11.282 4.027a71.171 71.171 0 0 0 8.911 1.646c2.261.259 3.641.312 3.653.312l165.703-.039c2.792 0 5.901-.182 9.21-.661a58.704 58.704 0 0 0 10.421-2.513 55.047 55.047 0 0 0 10.927-5.116c3.646-2.215 7.272-5 10.737-8.472.933-.92 2.384-2.474 4.035-4.637 1.658-2.164 3.511-4.936 5.253-8.304s3.368-7.318 4.553-11.839c1.199-4.521 1.943-9.611 1.943-15.259 0-5.545-.59-10.401-1.555-14.689a54.353 54.353 0 0 0-3.802-11.14 54.419 54.419 0 0 0-4.754-8.134c-1.6-2.268-3.147-4.12-4.41-5.648a175.293 175.293 0 0 0-4.319-4.871 691.122 691.122 0 0 0-6.471-7.02 1350.71 1350.71 0 0 0-7.577-8.07 2119.23 2119.23 0 0 0-7.61-8.019c-.479-.479-.9-.971-1.263-1.502a9.746 9.746 0 0 1-.914-1.645 9.264 9.264 0 0 1-.557-1.775 9.386 9.386 0 0 1-.188-1.865c0-1.049.169-2.072.473-3.031a9.354 9.354 0 0 1 1.342-2.629 9.196 9.196 0 0 1 2.072-2.086 9.228 9.228 0 0 1 3.213-1.464 7.513 7.513 0 0 1 1.074-.142c.182-.013.362-.025.551-.025h88.988c.305 0 .59-.065.855-.169.265-.116.499-.272.699-.479a2.156 2.156 0 0 0 .661-1.555"/><path fill="#FFE81F" d="M1422.595 592.482c2.655 0 5.362.413 7.928 1.243 2.564.842 4.987 2.111 7.085 3.834a18.513 18.513 0 0 1 5.084 6.528c1.243 2.643 1.956 5.751 1.956 9.352 0 3.485-.706 6.412-1.853 8.873-1.146 2.475-2.739 4.456-4.514 6.036a21.401 21.401 0 0 1-5.635 3.588c-1.891.83-3.705 1.321-5.201 1.529l-.259.039c-.084.013-.168.013-.266.025-.084.013-.168.013-.265.013-.078.014-.163.014-.247.014h-51.871c-.298 0-.582-.064-.849-.169a2.485 2.485 0 0 1-.692-.466 2.775 2.775 0 0 1-.473-.713 2.35 2.35 0 0 1-.169-.867v-36.658c0-.311.065-.596.169-.867.116-.26.285-.492.473-.7.201-.194.44-.35.692-.466.267-.104.551-.168.849-.168h48.058zm3.814 33.691c.13-.025.881-.129 1.917-.453 1.05-.323 2.391-.855 3.718-1.748 1.328-.882 2.63-2.112 3.607-3.822.972-1.71 1.626-3.911 1.626-6.71 0-2.797-.615-5.038-1.612-6.839-1.004-1.801-2.384-3.16-3.912-4.158-1.528-.997-3.219-1.657-4.818-2.06-1.6-.389-3.129-.556-4.34-.556h-41.639c-.013.013-.091.038-.213.09-.116.064-.26.142-.408.285a1.602 1.602 0 0 0-.401.505 2.021 2.021 0 0 0-.169.842v22.927c0 .351.064.623.169.843.11.22.252.388.401.518.148.13.292.221.408.272.122.064.2.091.213.091l45.453-.027M1162.624 586.031l26.166 83.703c0 .272-.052.545-.143.803a2.836 2.836 0 0 1-.389.7 2.689 2.689 0 0 1-.583.531 2.548 2.548 0 0 1-.732.323h-51.799a2.414 2.414 0 0 1-.732-.323 2.559 2.559 0 0 1-.583-.531 2.47 2.47 0 0 1-.389-.7 2.285 2.285 0 0 1-.149-.803l26.631-83.418c.084-.233.175-.454.285-.648a2.49 2.49 0 0 1 .33-.505 1.23 1.23 0 0 1 .376-.323.824.824 0 0 1 .421-.117.9.9 0 0 1 .363.091c.11.064.233.155.337.272.11.104.214.246.311.414.104.155.188.337.279.531m14.437 78.703a2.43 2.43 0 0 0 .719-.323 2.35 2.35 0 0 0 .589-.544 2.32 2.32 0 0 0 .525-1.491c0-.116-.978-3.29-2.48-8.043a3458.105 3458.105 0 0 0-5.531-17.462 4717.106 4717.106 0 0 0-5.674-17.862c-1.6-5.025-2.746-8.613-2.953-9.274a15.323 15.323 0 0 0-.369-1.14 6.761 6.761 0 0 0-.246-.609.712.712 0 0 0-.156-.232c-.039-.039-.064-.039-.084-.039-.032 0-.065 0-.11.039a.631.631 0 0 0-.162.232c-.071.13-.155.325-.259.609-.097.271-.22.647-.362 1.14-.22.661-1.405 4.249-3.07 9.274-1.665 5.014-3.808 11.464-5.913 17.862a9355.186 9355.186 0 0 0-5.757 17.462c-1.548 4.753-2.584 7.927-2.584 8.043 0 .285.052.558.149.804.084.245.208.492.375.687.163.22.356.389.577.544.227.142.479.259.745.323h32.031"/><path fill="#FFE81F" d="M1217.656 542.807c.79 2.552 5.155 16.593 11.256 36.204s13.931 44.805 21.671 69.688c7.732 24.896 15.375 49.469 21.068 67.862 5.705 18.367 9.475 30.543 9.475 30.634 0 .26-.052.506-.148.726a1.683 1.683 0 0 1-.389.57 1.863 1.863 0 0 1-.596.376c-.214.09-.46.143-.713.143l-72.81.025a1.724 1.724 0 0 1-.421-.22 1.933 1.933 0 0 1-.344-.338 1.665 1.665 0 0 1-.265-.4 1.936 1.936 0 0 1-.162-.454l-8.452-27.525a1.937 1.937 0 0 0-.285-.467 2.61 2.61 0 0 0-.388-.362 2.369 2.369 0 0 0-.48-.246 1.852 1.852 0 0 0-.531-.129l-68.6.052c-.194 0-.375.039-.55.09-.168.052-.33.143-.486.233a2.57 2.57 0 0 0-.382.362 2.135 2.135 0 0 0-.272.467l-8.595 27.5a2.07 2.07 0 0 1-.434.867c-.097.13-.214.246-.343.337a1.62 1.62 0 0 1-.421.208h-73.976c-.253 0-.499-.053-.719-.143a2.058 2.058 0 0 1-.589-.402 1.854 1.854 0 0 1-.388-.582 1.77 1.77 0 0 1-.149-.713c0-.091 3.666-12.28 9.223-30.66 5.557-18.381 12.992-42.953 20.524-67.836s15.168-50.063 21.107-69.675a64391.16 64391.16 0 0 1 10.965-36.191 2.55 2.55 0 0 1 .337-.713 2.69 2.69 0 0 1 .524-.557c.207-.168.44-.298.687-.402.239-.077.505-.142.777-.155h111.929c.285.014.557.078.81.155.252.104.479.234.693.402.2.155.375.35.518.557.143.219.252.452.324.712m51.618 198.844a1.807 1.807 0 0 0 1.302-.545c.168-.168.298-.362.396-.582a1.89 1.89 0 0 0 .143-.713l-58.899-189.635a2.564 2.564 0 0 0-.337-.713 2.873 2.873 0 0 0-.531-.556 2.644 2.644 0 0 0-1.464-.545h-101.029a2.637 2.637 0 0 0-1.994 1.101c-.149.221-.26.454-.337.713l-57.37 189.635a1.803 1.803 0 0 0 .55 1.295c.168.169.356.312.577.401.227.091.466.144.725.144h58.613c.149-.053.299-.13.421-.233a1.899 1.899 0 0 0 .615-.738c.071-.13.123-.285.162-.44l8.627-27.525c.071-.169.162-.324.272-.454.116-.129.239-.259.395-.363.136-.103.304-.193.479-.258.168-.052.356-.091.551-.091h79.377c.194 0 .375.039.551.091.168.064.33.155.479.258.143.104.278.234.389.363.104.13.201.285.272.454l8.478 27.525c.026.155.078.311.143.44.071.155.162.284.259.414.104.116.22.233.35.324.129.104.259.181.408.233h57.427M1067.645 540.979c.13.014.246.052.363.13.097.078.188.169.258.285a1.397 1.397 0 0 1 .233.816l-62.739 205.813a2.148 2.148 0 0 1-.162.4 2.004 2.004 0 0 1-.246.312 1.026 1.026 0 0 1-.312.194.909.909 0 0 1-.382.078h-68.963c-.11 0-.213-.026-.311-.053a.646.646 0 0 1-.266-.142.742.742 0 0 1-.213-.208.836.836 0 0 1-.136-.285l-23.245-76.786a1.354 1.354 0 0 0-.097-.271.576.576 0 0 0-.162-.221.515.515 0 0 0-.207-.155.608.608 0 0 0-.266-.052.553.553 0 0 0-.265.052.4.4 0 0 0-.201.143.932.932 0 0 0-.155.233 2.4 2.4 0 0 0-.123.311l-23.795 76.45a1.657 1.657 0 0 1-.376.661 2.06 2.06 0 0 1-.278.221.913.913 0 0 1-.305.104h-68.438a.945.945 0 0 1-.389-.078 1.046 1.046 0 0 1-.311-.194 1.6 1.6 0 0 1-.239-.312 2.726 2.726 0 0 1-.169-.4L752.09 542.574c-.013-.259.02-.492.078-.687s.143-.362.252-.492c.11-.13.24-.22.389-.285a.997.997 0 0 1 .479-.104l82.415-.026a.816.816 0 0 1 .227.078.719.719 0 0 1 .187.155.475.475 0 0 1 .136.208.51.51 0 0 1 .065.233l15.939 53.651a.728.728 0 0 0 .239.44.644.644 0 0 0 .207.117.608.608 0 0 0 .259.051c.11 0 .201-.025.285-.051.084-.026.149-.091.208-.144a.957.957 0 0 0 .156-.22c.039-.091.064-.182.09-.298l15.013-53.704 85.918-.519a.644.644 0 0 1 .499.208.78.78 0 0 1 .162.22.784.784 0 0 1 .078.247l16.735 53.548c.02.09.052.181.097.259a.784.784 0 0 0 .175.233.815.815 0 0 0 .227.182.71.71 0 0 0 .272.064.599.599 0 0 0 .272-.052.658.658 0 0 0 .213-.155c.058-.065.11-.143.155-.233a1.32 1.32 0 0 0 .098-.298l15.997-53.483c.026-.104.052-.208.091-.285a.72.72 0 0 1 .155-.233.6.6 0 0 1 .208-.169.661.661 0 0 1 .279-.052h77.3zm-9.243 8.952a2.013 2.013 0 0 0-.084-.674 1.201 1.201 0 0 0-.259-.492 1.026 1.026 0 0 0-.382-.298 1.164 1.164 0 0 0-.473-.104h-61.392a.843.843 0 0 0-.265.052.765.765 0 0 0-.208.168c-.071.065-.117.144-.162.221a1.794 1.794 0 0 0-.091.299l-20.732 70.076a2.475 2.475 0 0 1-.201.505 1.6 1.6 0 0 1-.317.401 1.29 1.29 0 0 1-.421.26 1.29 1.29 0 0 1-.505.09 1.23 1.23 0 0 1-.551-.104 1.102 1.102 0 0 1-.408-.285 2.069 2.069 0 0 1-.298-.467 4.099 4.099 0 0 1-.22-.621l-21.528-69.895a1.16 1.16 0 0 0-.078-.26c-.045-.064-.097-.143-.162-.221-.065-.064-.136-.116-.22-.155s-.168-.064-.279-.064H874.83l-20.356 70.595c-.065.233-.136.44-.22.621a1.84 1.84 0 0 1-.305.467c-.123.13-.253.221-.408.285-.156.078-.337.104-.551.104-.175 0-.35-.025-.505-.09a1.42 1.42 0 0 1-.421-.26 1.727 1.727 0 0 1-.311-.401 2.173 2.173 0 0 1-.201-.505l-20.79-70.142a.9.9 0 0 0-.078-.246.92.92 0 0 0-.142-.194.435.435 0 0 0-.194-.143.52.52 0 0 0-.227-.091h-66.884c-.168 0-.33.039-.473.091a1.036 1.036 0 0 0-.375.272 1.22 1.22 0 0 0-.259.389c-.058.142-.091.31-.091.479l59.112 191.073c.045.143.104.284.175.4.065.117.149.221.239.312a.976.976 0 0 0 .311.194c.11.052.24.064.382.064h57.577c.104-.013.194-.052.305-.104a1.59 1.59 0 0 0 .498-.557c.065-.117.117-.22.149-.337l28.587-91.048c.052-.182.117-.35.201-.506.09-.143.188-.285.311-.389.13-.104.266-.193.421-.245.155-.064.331-.091.512-.091.213 0 .408.026.583.077.175.052.33.143.46.246.136.116.239.246.336.389.084.155.149.337.182.519l27.797 91.346a.979.979 0 0 0 .149.284c.065.078.136.144.22.208s.175.104.266.143c.11.025.207.039.311.039l58.011.025a.922.922 0 0 0 .382-.064c.11-.039.214-.116.311-.194.091-.091.168-.194.24-.324.071-.13.123-.271.168-.414l58.167-190.709M1327.246 366.038l25.738 83.69c0 .285-.052.558-.143.81-.085.246-.22.492-.376.7-.169.2-.362.375-.582.53a2.648 2.648 0 0 1-.745.324h-50.239a2.742 2.742 0 0 1-.745-.324 3.267 3.267 0 0 1-.583-.53 2.466 2.466 0 0 1-.375-.7 2.533 2.533 0 0 1-.143-.81l25.492-83.412a4.07 4.07 0 0 1 .291-.647c.097-.201.214-.363.337-.505.116-.143.246-.253.375-.324a.826.826 0 0 1 .409-.116c.122 0 .245.039.362.091.116.064.232.155.337.271.116.11.213.246.311.408.104.162.195.344.279.544m14.003 78.697c.271-.064.524-.182.751-.337.227-.136.421-.323.59-.531.168-.201.304-.44.388-.692.098-.24.143-.524.143-.797 0-.116-.964-3.29-2.422-8.044a5353.185 5353.185 0 0 0-5.396-17.461c-1.981-6.393-3.982-12.85-5.537-17.862-1.566-5.033-2.681-8.621-2.888-9.275-.137-.491-.26-.867-.357-1.14a6.734 6.734 0 0 0-.246-.608c-.058-.13-.104-.194-.155-.233-.039-.038-.071-.038-.097-.038-.033 0-.064 0-.11.038a.722.722 0 0 0-.161.233 6.937 6.937 0 0 0-.24.608c-.098.272-.214.648-.344 1.14-.214.654-1.327 4.242-2.889 9.275-1.561 5.013-3.563 11.47-5.544 17.862-1.981 6.386-3.938 12.707-5.395 17.461s-2.423 7.928-2.423 8.044c0 .272.046.557.144.797a2.437 2.437 0 0 0 .965 1.223c.227.155.473.272.731.337h30.492"/></svg>